<svg width="40" height="40" viewBox="0 0 40 40" fill="none" xmlns="http://www.w3.org/2000/svg">
<path d="M20 35.4166H11.6666C5.58331 35.4166 2.08331 31.9166 2.08331 25.8333V14.1666C2.08331 8.08331 5.58331 4.58331 11.6666 4.58331H28.3333C34.4166 4.58331 37.9166 8.08331 37.9166 14.1666V19.1666C37.9166 19.85 37.35 20.4166 36.6666 20.4166C35.9833 20.4166 35.4166 19.85 35.4166 19.1666V14.1666C35.4166 9.39998 33.1 7.08331 28.3333 7.08331H11.6666C6.89998 7.08331 4.58331 9.39998 4.58331 14.1666V25.8333C4.58331 30.6 6.89998 32.9166 11.6666 32.9166H20C20.6833 32.9166 21.25 33.4833 21.25 34.1666C21.25 34.85 20.6833 35.4166 20 35.4166Z" fill="#292D32"/>
<path d="M19.9996 21.4499C18.5996 21.4499 17.183 21.0166 16.0997 20.1333L10.883 15.9666C10.3496 15.5333 10.2497 14.7499 10.683 14.2166C11.1163 13.6833 11.8996 13.6 12.433 14.0166L17.6496 18.1833C18.9163 19.2 21.0663 19.2 22.333 18.1833L27.5496 14.0166C28.083 13.5833 28.8663 13.6666 29.2996 14.2166C29.733 14.7499 29.6496 15.5499 29.0996 15.9666L23.883 20.1333C22.8163 21.0166 21.3996 21.4499 19.9996 21.4499Z" fill="#292D32"/>
<path d="M26.3668 36.3C25.7334 36.3 25.1334 36.0667 24.7001 35.6333C24.1834 35.1167 23.9501 34.3667 24.0668 33.5833L24.3834 31.3333C24.4668 30.75 24.8168 30.05 25.2335 29.6333L31.1334 23.7333C31.9334 22.9333 32.7168 22.5166 33.5668 22.4333C34.6001 22.3333 35.6334 22.7666 36.6001 23.7333C37.5668 24.7 38.0001 25.7167 37.9001 26.7667C37.8168 27.6 37.3834 28.4 36.6001 29.2L30.7001 35.1C30.2835 35.5167 29.5834 35.8667 29.0001 35.95L26.7501 36.2667C26.6168 36.2833 26.5001 36.3 26.3668 36.3ZM33.8501 24.9167C33.8334 24.9167 33.8168 24.9167 33.8001 24.9167C33.5668 24.9333 33.2501 25.15 32.9001 25.5L27.0001 31.4C26.9501 31.45 26.8668 31.6167 26.8668 31.6833L26.5668 33.7667L28.6501 33.4666C28.7168 33.45 28.8834 33.3666 28.9334 33.3166L34.8334 27.4167C35.1834 27.05 35.4001 26.75 35.4168 26.5167C35.4501 26.1833 35.1168 25.7833 34.8334 25.5C34.5668 25.2333 34.1834 24.9167 33.8501 24.9167Z" fill="#292D32"/>
<path d="M34.8669 30.4165C34.7502 30.4165 34.6335 30.3999 34.5335 30.3666C32.3335 29.7499 30.5835 27.9999 29.9668 25.7999C29.7835 25.1332 30.1668 24.4499 30.8335 24.2499C31.5002 24.0665 32.1835 24.4499 32.3669 25.1166C32.7502 26.4832 33.8335 27.5665 35.2002 27.9499C35.8668 28.1332 36.2502 28.8332 36.0669 29.4999C35.9169 30.0499 35.4169 30.4165 34.8669 30.4165Z" fill="#292D32"/>
</svg>
