<svg width="40" height="40" viewBox="0 0 40 40" fill="none" xmlns="http://www.w3.org/2000/svg">
<path d="M25 37.9167H15C5.95004 37.9167 2.08337 34.05 2.08337 25V15C2.08337 5.95004 5.95004 2.08337 15 2.08337H25C34.05 2.08337 37.9167 5.95004 37.9167 15V25C37.9167 34.05 34.05 37.9167 25 37.9167ZM15 4.58337C7.31671 4.58337 4.58337 7.31671 4.58337 15V25C4.58337 32.6834 7.31671 35.4167 15 35.4167H25C32.6834 35.4167 35.4167 32.6834 35.4167 25V15C35.4167 7.31671 32.6834 4.58337 25 4.58337H15Z" fill="#292D32"/>
<path d="M20 27.0833C16.1 27.0833 12.9166 23.9 12.9166 20C12.9166 16.1 16.1 12.9166 20 12.9166C23.9 12.9166 27.0833 16.1 27.0833 20C27.0833 23.9 23.9 27.0833 20 27.0833ZM20 15.4166C17.4666 15.4166 15.4166 17.4666 15.4166 20C15.4166 22.5333 17.4666 24.5833 20 24.5833C22.5333 24.5833 24.5833 22.5333 24.5833 20C24.5833 17.4666 22.5333 15.4166 20 15.4166Z" fill="#292D32"/>
<path d="M28.3333 12.5C28.1166 12.5 27.9 12.45 27.7 12.3666C27.5 12.2833 27.3166 12.1666 27.15 12.0166C27 11.85 26.8666 11.6666 26.7833 11.4666C26.7 11.2666 26.6666 11.05 26.6666 10.8333C26.6666 10.6166 26.7 10.4 26.7833 10.2C26.8833 9.9833 27 9.81663 27.15 9.64996C27.2333 9.5833 27.3166 9.49996 27.4 9.44996C27.5 9.3833 27.6 9.3333 27.7 9.29996C27.8 9.24996 27.9 9.21663 28.0166 9.19996C28.55 9.0833 29.1166 9.26663 29.5166 9.64996C29.6666 9.81663 29.7833 9.9833 29.8666 10.2C29.95 10.4 30 10.6166 30 10.8333C30 11.05 29.95 11.2666 29.8666 11.4666C29.7833 11.6666 29.6666 11.85 29.5166 12.0166C29.35 12.1666 29.1666 12.2833 28.9666 12.3666C28.7666 12.45 28.55 12.5 28.3333 12.5Z" fill="#292D32"/>
</svg>
