<svg width="41" height="40" viewBox="0 0 41 40" fill="none" xmlns="http://www.w3.org/2000/svg">
<path d="M30.7236 40C28.6102 40 26.3846 39.4977 24.0841 38.5302C21.8398 37.5814 19.5768 36.2791 17.3698 34.6977C15.1816 33.0977 13.0682 31.3116 11.067 29.3581C9.08453 27.3674 7.28907 25.2651 5.69934 23.107C4.09091 20.8744 2.80042 18.6419 1.88398 16.4837C0.911442 14.1767 0.425171 11.9442 0.425171 9.84186C0.425171 8.3907 0.687009 7.01395 1.19198 5.73023C1.71566 4.4093 2.55728 3.1814 3.69815 2.12093C5.13826 0.706977 6.7841 0 8.54216 0C9.27156 0 10.0197 0.167442 10.6556 0.465116C11.385 0.8 12.0022 1.30233 12.451 1.97209L16.7901 8.05581C17.1828 8.59535 17.4821 9.11628 17.6878 9.63721C17.9309 10.1953 18.0618 10.7535 18.0618 11.293C18.0618 12 17.8561 12.6884 17.4634 13.3395C17.1828 13.8419 16.7527 14.3814 16.2103 14.9209L14.9385 16.2419C14.9572 16.2977 14.9759 16.3349 14.9946 16.3721C15.219 16.7628 15.6679 17.4326 16.5282 18.4372C17.4447 19.4791 18.305 20.4279 19.1653 21.3023C20.2688 22.3814 21.1852 23.2372 22.0455 23.9442C23.1116 24.8372 23.8036 25.2837 24.215 25.4884L24.1776 25.5814L25.5429 24.2419C26.1227 23.6651 26.6838 23.2372 27.2262 22.9581C28.2548 22.3256 29.564 22.214 30.8732 22.7535C31.3595 22.9581 31.8832 23.2372 32.4442 23.6279L38.6535 28.0186C39.3456 28.4837 39.8505 29.0791 40.1498 29.786C40.4303 30.493 40.5612 31.1442 40.5612 31.7953C40.5612 32.6884 40.3555 33.5814 39.9627 34.4186C39.57 35.2558 39.0837 35.9814 38.4665 36.6512C37.4005 37.8233 36.2409 38.6605 34.8943 39.2C33.6038 39.7209 32.2011 40 30.7236 40ZM8.54216 2.7907C7.51351 2.7907 6.55967 3.23721 5.64323 4.13023C4.78291 4.93023 4.18442 5.80465 3.81036 6.75349C3.41761 7.72093 3.23058 8.74419 3.23058 9.84186C3.23058 11.5721 3.64204 13.4512 4.46496 15.386C5.30658 17.3581 6.48485 19.4047 7.98107 21.4512C9.47729 23.4977 11.1792 25.4884 13.0495 27.3674C14.9198 29.2093 16.9397 30.9209 19.0157 32.4279C21.0356 33.8977 23.1116 35.0884 25.1689 35.9442C28.367 37.3023 31.3595 37.6186 33.8282 36.5953C34.7821 36.2047 35.6237 35.6093 36.3905 34.7535C36.8207 34.2884 37.1573 33.786 37.4379 33.1907C37.6623 32.7256 37.7745 32.2419 37.7745 31.7581C37.7745 31.4605 37.7184 31.1628 37.5688 30.8279C37.5127 30.7163 37.4005 30.5116 37.0451 30.2698L30.8358 25.8791C30.4618 25.6186 30.1251 25.4326 29.8072 25.3023C29.3957 25.1349 29.2274 24.9674 28.5915 25.3581C28.2174 25.5442 27.8808 25.8233 27.5067 26.1953L26.0853 27.5907C25.3559 28.2977 24.2337 28.4651 23.3734 28.1488L22.8684 27.9256C22.1016 27.5163 21.2039 26.8837 20.2127 26.0465C19.3149 25.2837 18.3424 24.3907 17.1641 23.2372C16.2477 22.307 15.3312 21.3209 14.3774 20.2233C13.4984 19.2 12.8625 18.3256 12.4697 17.6L12.2453 17.0419C12.1331 16.614 12.0957 16.3721 12.0957 16.1116C12.0957 15.4419 12.3388 14.8465 12.8064 14.3814L14.2091 12.9302C14.5831 12.5581 14.8637 12.2047 15.0507 11.8884C15.2003 11.6465 15.2564 11.4419 15.2564 11.2558C15.2564 11.107 15.2003 10.8837 15.1068 10.6605C14.9759 10.3628 14.7702 10.0279 14.5083 9.67442L10.1693 3.57209C9.98227 3.31163 9.75783 3.12558 9.47729 2.99535C9.17805 2.86512 8.8601 2.7907 8.54216 2.7907ZM24.1776 25.6L23.8784 26.8651L24.3834 25.5628C24.2899 25.5442 24.215 25.5628 24.1776 25.6Z" fill="#292D32"/>
</svg>
