<svg width="41" height="40" viewBox="0 0 41 40" fill="none" xmlns="http://www.w3.org/2000/svg">
<path d="M20.068 0C8.9951 0 0 8.9646 0 20C0 31.0354 8.9951 40 20.068 40C31.141 40 40.1361 31.0354 40.1361 20C40.1361 8.9646 31.141 0 20.068 0ZM20.068 1.73913C30.1979 1.73913 38.391 9.9045 38.391 20C38.391 30.0955 30.1979 38.2609 20.068 38.2609C9.93819 38.2609 1.74505 30.0955 1.74505 20C1.74505 9.9045 9.93819 1.73913 20.068 1.73913ZM11.3445 13.913L7.82374 13.9147C7.82374 13.9147 7.62227 13.9034 7.37895 13.9351C7.13564 13.9668 6.77618 13.9815 6.40759 14.3971L6.40589 14.3988L6.40418 14.4005C6.07632 14.7741 6.08883 15.2091 6.12981 15.4484C6.17065 15.6868 6.26274 15.8662 6.26274 15.8662V15.8679C6.29659 15.9506 8.85295 22.193 12.0756 25.5469C14.3487 27.9142 16.7798 28.6957 18.945 28.6957H20.068C20.4375 28.6957 20.7675 28.6789 21.1331 28.4901C21.4988 28.3014 21.8131 27.7805 21.8131 27.376C21.8131 26.9402 21.8238 26.5177 21.8795 26.2823C21.9316 26.0624 21.9115 26.1163 21.9324 26.1158C21.9533 26.1204 21.9914 26.1291 22.0636 26.1617C22.2192 26.2318 22.4597 26.3884 22.7265 26.5948C23.2592 27.0069 23.8901 27.6048 24.5976 28.0673C25.611 28.7366 26.7108 28.6957 26.7108 28.6957H30.3372L30.3764 28.6923C30.3764 28.6923 30.9329 28.6796 31.5046 28.3305C31.7904 28.1559 32.1301 27.8357 32.2442 27.3556C32.3582 26.8756 32.2126 26.372 31.9323 25.929C31.8299 25.7665 31.3328 25.0486 29.3488 23.2931C28.8362 22.8401 28.4867 22.5194 28.3485 22.3488C28.2994 22.2883 28.2953 22.2941 28.2854 22.2911C28.297 22.2614 28.4116 22.0208 28.7183 21.6236C29.0379 21.2097 29.5236 20.633 30.1481 19.8404C30.944 18.8298 31.5025 17.858 31.8539 17.038C32.0296 16.6281 32.1542 16.256 32.2288 15.9188C32.3035 15.5816 32.363 15.3013 32.2527 14.9015C32.1704 14.6039 31.9469 14.3374 31.7278 14.1967C31.5087 14.056 31.3045 14.003 31.1211 13.9691C30.7544 13.9013 30.4309 13.913 30.1293 13.913C29.4978 13.913 26.6903 13.9351 26.4586 13.9351C26.1866 13.9351 25.7527 14.048 25.552 14.1627C25.0535 14.4472 24.8976 14.837 24.8976 14.837L24.8499 14.9202L24.8226 15.0136C24.8226 15.0136 24.1833 17.0746 23.5257 18.1369H23.524C22.7508 19.3883 22.174 19.8847 21.9204 20.0255C21.8935 20.0404 21.9084 20.0325 21.8898 20.0425C21.8699 19.9849 21.8449 19.9056 21.8284 19.7588C21.7913 19.4282 21.8131 18.9626 21.8131 18.5122C21.8131 17.2649 21.9071 16.4871 21.8028 15.7507C21.7507 15.3825 21.6181 14.9724 21.3155 14.6569C21.0128 14.3415 20.622 14.1862 20.2316 14.0965H20.2299C19.8231 14.0031 19.3847 13.9229 18.3315 13.913C16.9896 13.9006 16.1156 13.942 15.339 14.2867L15.3305 14.2918L15.3237 14.2952C15.0168 14.4388 14.775 14.6035 14.5619 14.8234C14.4554 14.9333 14.3291 15.0134 14.2416 15.3635C14.1978 15.5385 14.193 15.8696 14.3915 16.1379C14.59 16.4062 14.8682 16.4871 15.0323 16.5082C15.002 16.5042 15.1613 16.5392 15.2845 16.5999C15.4077 16.6606 15.5146 16.7479 15.5418 16.7833V16.785C15.5304 16.7702 15.6487 17.0632 15.6799 17.3302C15.711 17.5972 15.7054 17.8125 15.7054 17.8125L15.7037 17.8651L15.7088 17.9178C15.7088 17.9178 15.7624 18.5086 15.7344 19.1185C15.7204 19.4235 15.6817 19.7304 15.6304 19.9185C15.6277 19.9284 15.6265 19.9249 15.6236 19.9338C15.4052 19.7817 14.9014 19.2519 14.2075 18.1097C13.566 17.0531 12.9651 15.1529 12.9651 15.1529L12.9515 15.1104L12.9362 15.0696C12.9362 15.0696 12.8242 14.6451 12.3295 14.2986C11.8659 13.9733 11.4246 13.9283 11.4246 13.9283L11.3445 13.913ZM11.1417 15.6522C11.1916 15.6704 11.296 15.7078 11.3155 15.7167L11.2951 15.6556L11.3223 15.7184L11.3258 15.7201V15.7218H11.3275C11.2836 15.6912 11.3208 15.7216 11.3258 15.7286C11.3499 15.8105 11.8826 17.6395 12.7146 19.0098C13.4726 20.2573 14.0325 20.9562 14.6437 21.374C15.2543 21.7913 16.0754 21.7483 16.4927 21.5319C17.0505 21.2433 17.2064 20.7688 17.3141 20.3736C17.4219 19.9785 17.4603 19.5775 17.4777 19.1984C17.5109 18.4749 17.4541 17.8831 17.4488 17.8244C17.4496 17.7917 17.4574 17.509 17.413 17.1281C17.3682 16.7442 17.2879 16.2671 16.946 15.788C17.329 15.7313 17.5416 15.645 18.3145 15.6522C19.3001 15.6614 19.45 15.7024 19.838 15.7914C20.0492 15.84 20.0727 15.8802 20.0527 15.8594C20.0327 15.8385 20.0509 15.8246 20.0748 15.9935C20.1227 16.3314 20.068 17.1978 20.068 18.5122C20.068 18.8827 20.0321 19.4053 20.0936 19.9524C20.155 20.4993 20.3265 21.199 20.99 21.6084C21.368 21.8415 22.0902 21.9217 22.7708 21.5438C23.4514 21.1659 24.1499 20.441 25.0101 19.0489C25.8597 17.6764 26.3678 15.8718 26.4228 15.681C26.4228 15.681 26.4325 15.6748 26.4381 15.6709C26.4535 15.6716 26.4339 15.6743 26.4586 15.6743C26.7818 15.6743 29.5393 15.6522 30.1293 15.6522C30.2916 15.6522 30.3629 15.6609 30.4838 15.6658C30.4349 15.8535 30.3692 16.0721 30.2486 16.3536C29.9651 17.0152 29.4784 17.8732 28.7745 18.767C28.1679 19.537 27.6966 20.0954 27.3362 20.5622C26.9758 21.0289 26.6927 21.397 26.5745 21.9293C26.4562 22.4617 26.6818 23.062 26.9903 23.4426C27.2987 23.8232 27.6804 24.1437 28.19 24.5941C30.1096 26.2925 30.4246 26.8067 30.4548 26.8546V26.8563C30.4872 26.9075 30.4662 26.856 30.4787 26.8818C30.3698 26.9156 30.2403 26.9539 30.2281 26.9565H26.6972H26.692C26.692 26.9565 26.0426 26.9353 25.5605 26.6168L25.5588 26.6151H25.5571C25.047 26.2822 24.4306 25.7113 23.7967 25.2208C23.4797 24.9755 23.157 24.7458 22.7827 24.5771C22.4084 24.4085 21.934 24.2889 21.4348 24.4378C20.7121 24.6534 20.311 25.3388 20.1822 25.8832C20.0897 26.2739 20.1034 26.6137 20.1004 26.9548C20.0755 26.9561 20.0971 26.9565 20.068 26.9565H18.945C17.1716 26.9565 15.3266 26.417 13.3366 24.3444C10.7495 21.6519 8.44119 16.4449 8.0947 15.6539L11.1417 15.6522ZM26.3614 15.659C26.3456 15.6625 26.3909 15.6659 26.4279 15.6692C26.4229 15.6719 26.4283 15.6668 26.4211 15.6709C26.4204 15.6563 26.3827 15.6542 26.3614 15.659Z" fill="black"/>
</svg>
