<svg width="115" height="115" viewBox="0 0 115 115" fill="none" xmlns="http://www.w3.org/2000/svg">
<circle cx="57.5" cy="57.5" r="55" stroke="black" stroke-width="5"/>
<circle cx="57.5" cy="57.5" r="43.5" stroke="black" stroke-width="5"/>
<path d="M49.7253 55.425L57.5 35.2259L65.2747 55.425H49.7253Z" stroke="black" stroke-width="3"/>
<path d="M65.2747 59.575L57.5 79.7741L49.7253 59.575H65.2747Z" stroke="black" stroke-width="3"/>
<path d="M33.3501 83.375L38.3297 80.5" stroke="black" stroke-width="5" stroke-linecap="round"/>
<path d="M77.0498 80.5L82.0295 83.375" stroke="black" stroke-width="5" stroke-linecap="round"/>
<path d="M79.3501 37.1796L82.2251 32.1999" stroke="black" stroke-width="5" stroke-linecap="round"/>
<path d="M57.5 28.75V23" stroke="black" stroke-width="5" stroke-linecap="round"/>
<path d="M34.5 32.2L37.375 37.1796" stroke="black" stroke-width="5" stroke-linecap="round"/>
<path d="M23 57.5H28.75" stroke="black" stroke-width="5" stroke-linecap="round"/>
<path d="M86.25 57.5H92" stroke="black" stroke-width="5" stroke-linecap="round"/>
<rect y="89.7" width="115" height="25.3" fill="white"/>
<path d="M11.5611 107.15V99.45H13.0351L17.5781 104.994H16.8631V99.45H18.6231V107.15H17.1601L12.6061 101.606H13.3211V107.15H11.5611ZM24.1849 107.282C23.5763 107.282 23.0116 107.183 22.4909 106.985C21.9776 106.787 21.5303 106.508 21.1489 106.149C20.7749 105.79 20.4816 105.368 20.2689 104.884C20.0636 104.4 19.9609 103.872 19.9609 103.3C19.9609 102.728 20.0636 102.2 20.2689 101.716C20.4816 101.232 20.7786 100.81 21.1599 100.451C21.5413 100.092 21.9886 99.813 22.5019 99.615C23.0153 99.417 23.5726 99.318 24.1739 99.318C24.7826 99.318 25.3399 99.417 25.8459 99.615C26.3593 99.813 26.8029 100.092 27.1769 100.451C27.5583 100.81 27.8553 101.232 28.0679 101.716C28.2806 102.193 28.3869 102.721 28.3869 103.3C28.3869 103.872 28.2806 104.404 28.0679 104.895C27.8553 105.379 27.5583 105.801 27.1769 106.16C26.8029 106.512 26.3593 106.787 25.8459 106.985C25.3399 107.183 24.7863 107.282 24.1849 107.282ZM24.1739 105.764C24.5186 105.764 24.8339 105.705 25.1199 105.588C25.4133 105.471 25.6699 105.302 25.8899 105.082C26.1099 104.862 26.2786 104.602 26.3959 104.301C26.5206 104 26.5829 103.667 26.5829 103.3C26.5829 102.933 26.5206 102.6 26.3959 102.299C26.2786 101.998 26.1099 101.738 25.8899 101.518C25.6773 101.298 25.4243 101.129 25.1309 101.012C24.8376 100.895 24.5186 100.836 24.1739 100.836C23.8293 100.836 23.5103 100.895 23.2169 101.012C22.9309 101.129 22.6779 101.298 22.4579 101.518C22.2379 101.738 22.0656 101.998 21.9409 102.299C21.8236 102.6 21.7649 102.933 21.7649 103.3C21.7649 103.659 21.8236 103.993 21.9409 104.301C22.0656 104.602 22.2343 104.862 22.4469 105.082C22.6669 105.302 22.9236 105.471 23.2169 105.588C23.5103 105.705 23.8293 105.764 24.1739 105.764ZM29.7262 107.15V99.45H31.2002L34.4782 104.884H33.6972L36.9202 99.45H38.3832L38.4052 107.15H36.7332L36.7222 102.013H37.0302L34.4562 106.336H33.6532L31.0242 102.013H31.3982V107.15H29.7262ZM39.22 107.15L42.652 99.45H44.412L47.855 107.15H45.985L43.169 100.352H43.873L41.046 107.15H39.22ZM40.936 105.5L41.409 104.147H45.369L45.853 105.5H40.936ZM48.6539 107.15V99.45H52.1519C52.9879 99.45 53.7249 99.6114 54.3629 99.934C55.0009 100.249 55.4996 100.693 55.8589 101.265C56.2183 101.837 56.3979 102.515 56.3979 103.3C56.3979 104.077 56.2183 104.756 55.8589 105.335C55.4996 105.907 55.0009 106.354 54.3629 106.677C53.7249 106.992 52.9879 107.15 52.1519 107.15H48.6539ZM50.4359 105.687H52.0639C52.5773 105.687 53.0209 105.592 53.3949 105.401C53.7763 105.203 54.0696 104.924 54.2749 104.565C54.4876 104.206 54.5939 103.784 54.5939 103.3C54.5939 102.809 54.4876 102.387 54.2749 102.035C54.0696 101.676 53.7763 101.401 53.3949 101.21C53.0209 101.012 52.5773 100.913 52.0639 100.913H50.4359V105.687ZM57.7418 107.15V99.45H59.5238V107.15H57.7418ZM65.0362 107.282C64.4422 107.282 63.8885 107.187 63.3752 106.996C62.8692 106.798 62.4292 106.519 62.0552 106.16C61.6812 105.801 61.3878 105.379 61.1752 104.895C60.9698 104.411 60.8672 103.879 60.8672 103.3C60.8672 102.721 60.9698 102.189 61.1752 101.705C61.3878 101.221 61.6812 100.799 62.0552 100.44C62.4365 100.081 62.8802 99.8057 63.3862 99.615C63.8922 99.417 64.4458 99.318 65.0472 99.318C65.7145 99.318 66.3158 99.4354 66.8512 99.67C67.3938 99.8974 67.8485 100.235 68.2152 100.682L67.0712 101.738C66.8072 101.437 66.5138 101.214 66.1912 101.067C65.8685 100.913 65.5165 100.836 65.1352 100.836C64.7758 100.836 64.4458 100.895 64.1452 101.012C63.8445 101.129 63.5842 101.298 63.3642 101.518C63.1442 101.738 62.9718 101.998 62.8472 102.299C62.7298 102.6 62.6712 102.933 62.6712 103.3C62.6712 103.667 62.7298 104 62.8472 104.301C62.9718 104.602 63.1442 104.862 63.3642 105.082C63.5842 105.302 63.8445 105.471 64.1452 105.588C64.4458 105.705 64.7758 105.764 65.1352 105.764C65.5165 105.764 65.8685 105.691 66.1912 105.544C66.5138 105.39 66.8072 105.159 67.0712 104.851L68.2152 105.907C67.8485 106.354 67.3938 106.695 66.8512 106.93C66.3158 107.165 65.7108 107.282 65.0362 107.282ZM74.1288 107.15V100.902H71.6648V99.45H78.3748V100.902H75.9108V107.15H74.1288ZM82.9662 107.282C82.3575 107.282 81.7929 107.183 81.2722 106.985C80.7589 106.787 80.3115 106.508 79.9302 106.149C79.5562 105.79 79.2629 105.368 79.0502 104.884C78.8449 104.4 78.7422 103.872 78.7422 103.3C78.7422 102.728 78.8449 102.2 79.0502 101.716C79.2629 101.232 79.5599 100.81 79.9412 100.451C80.3225 100.092 80.7699 99.813 81.2832 99.615C81.7965 99.417 82.3539 99.318 82.9552 99.318C83.5639 99.318 84.1212 99.417 84.6272 99.615C85.1405 99.813 85.5842 100.092 85.9582 100.451C86.3395 100.81 86.6365 101.232 86.8492 101.716C87.0619 102.193 87.1682 102.721 87.1682 103.3C87.1682 103.872 87.0619 104.404 86.8492 104.895C86.6365 105.379 86.3395 105.801 85.9582 106.16C85.5842 106.512 85.1405 106.787 84.6272 106.985C84.1212 107.183 83.5675 107.282 82.9662 107.282ZM82.9552 105.764C83.2999 105.764 83.6152 105.705 83.9012 105.588C84.1945 105.471 84.4512 105.302 84.6712 105.082C84.8912 104.862 85.0599 104.602 85.1772 104.301C85.3019 104 85.3642 103.667 85.3642 103.3C85.3642 102.933 85.3019 102.6 85.1772 102.299C85.0599 101.998 84.8912 101.738 84.6712 101.518C84.4585 101.298 84.2055 101.129 83.9122 101.012C83.6189 100.895 83.2999 100.836 82.9552 100.836C82.6105 100.836 82.2915 100.895 81.9982 101.012C81.7122 101.129 81.4592 101.298 81.2392 101.518C81.0192 101.738 80.8469 101.998 80.7222 102.299C80.6049 102.6 80.5462 102.933 80.5462 103.3C80.5462 103.659 80.6049 103.993 80.7222 104.301C80.8469 104.602 81.0155 104.862 81.2282 105.082C81.4482 105.302 81.7049 105.471 81.9982 105.588C82.2915 105.705 82.6105 105.764 82.9552 105.764ZM91.9284 107.282C90.8358 107.282 89.9814 106.978 89.3654 106.369C88.7494 105.76 88.4414 104.891 88.4414 103.762V99.45H90.2234V103.696C90.2234 104.429 90.3738 104.957 90.6744 105.28C90.9751 105.603 91.3968 105.764 91.9394 105.764C92.4821 105.764 92.9038 105.603 93.2044 105.28C93.5051 104.957 93.6554 104.429 93.6554 103.696V99.45H95.4154V103.762C95.4154 104.891 95.1074 105.76 94.4914 106.369C93.8754 106.978 93.0211 107.282 91.9284 107.282ZM97.1764 107.15V99.45H100.509C101.199 99.45 101.793 99.5637 102.291 99.791C102.79 100.011 103.175 100.33 103.446 100.748C103.718 101.166 103.853 101.665 103.853 102.244C103.853 102.816 103.718 103.311 103.446 103.729C103.175 104.14 102.79 104.455 102.291 104.675C101.793 104.895 101.199 105.005 100.509 105.005H98.1664L98.9584 104.224V107.15H97.1764ZM102.071 107.15L100.146 104.356H102.049L103.996 107.15H102.071ZM98.9584 104.422L98.1664 103.586H100.41C100.96 103.586 101.371 103.469 101.642 103.234C101.914 102.992 102.049 102.662 102.049 102.244C102.049 101.819 101.914 101.489 101.642 101.254C101.371 101.019 100.96 100.902 100.41 100.902H98.1664L98.9584 100.055V104.422Z" fill="black"/>
</svg>
